# xmcd
#
# Track frame offsets:
#	150
#	13050
#	40898
#	68476
#	96457
#	111974
#	128539
#	158891
#	182954
#	207988
#	233871
#	252331
#	278029
#	310879
#
# Disc length: 4795 seconds
#
# Revision: 2
# Processed by: cddbd v1.5.2PL0 Copyright (c) Steve Scherf et al.
# Submitted via: EZCDAudioConverter 2.1.7.1
#
DISCID=c312b90e
DTITLE=V/A - Warp 20 (Chosen) 2/2
DYEAR=2009
DGENRE=
TTITLE0=Broadcast - Tender Buttons
TTITLE1=Grizzly Bear - Colorado
TTITLE2=Squarepusher - My Sound
TTITLE3=Boards Of Canada - Amo Bishop Roden
TTITLE4=Battles - Race - Out
TTITLE5=Flying Lotus - GNG BNG
TTITLE6=Xeper (Black Dog Productions) - Carceres Ex Novum
TTITLE7=Nightmares On Wax - I'm For Real
TTITLE8=Mike Ink - Paroles [Original]
TTITLE9=Aphex Twin - Bucephalus Bouncing Ball
TTITLE10=Jamie Lidell - Daddy's Car
TTITLE11=Squarepusher/AFX - Freeman Hardy and Willis Acid
TTITLE12=Seefeel - Spangle
TTITLE13=Autechre - Drane
EXTD=
EXTT0=
EXTT1=
EXTT2=
EXTT3=
EXTT4=
EXTT5=
EXTT6=
EXTT7=
EXTT8=
EXTT9=
EXTT10=
EXTT11=
EXTT12=
EXTT13=
PLAYORDER=
